<svg width="149" height="30" viewBox="0 0 149 30" fill="none" xmlns="http://www.w3.org/2000/svg">
<path d="M149 26.0008L147.199 6.54523C147.167 6.16022 146.83 5.86835 146.422 5.86835H142.627C142.62 2.633 139.874 0 136.5 0C133.126 0 130.38 2.633 130.373 5.86835H126.578C126.176 5.86835 125.839 6.16022 125.801 6.54523L124 26.0008C124 26.0257 124 26.0443 124 26.0691C124 28.2364 126.079 30 128.631 30H144.369C146.921 30 149 28.2364 149 26.0691C149 26.0443 149 26.0257 149 26.0008ZM136.5 1.49037C139.019 1.49037 141.066 3.4527 141.073 5.86835H131.927C131.934 3.4527 133.981 1.49037 136.5 1.49037ZM144.369 28.5034H128.631C126.947 28.5034 125.574 27.4291 125.554 26.094L127.29 7.35872H130.373V9.97309C130.373 10.3829 130.723 10.7183 131.15 10.7183C131.578 10.7183 131.927 10.3829 131.927 9.97309V7.35872H141.073V9.97309C141.073 10.3829 141.422 10.7183 141.85 10.7183C142.277 10.7183 142.627 10.3829 142.627 9.97309V7.35872H145.71L147.446 26.1002C147.426 27.4291 146.053 28.5034 144.369 28.5034Z" fill="white"/>
<path d="M0.992188 8.1999H8.62419C10.4482 8.1999 12.0562 8.5519 13.4482 9.2559C14.8562 9.9439 15.9442 10.9199 16.7122 12.1839C17.4962 13.4479 17.8882 14.9199 17.8882 16.5999C17.8882 18.2799 17.4962 19.7519 16.7122 21.0159C15.9442 22.2799 14.8562 23.2639 13.4482 23.9679C12.0562 24.6559 10.4482 24.9999 8.62419 24.9999H0.992188V8.1999ZM8.43219 21.8079C10.1122 21.8079 11.4482 21.3439 12.4402 20.4159C13.4482 19.4719 13.9522 18.1999 13.9522 16.5999C13.9522 14.9999 13.4482 13.7359 12.4402 12.8079C11.4482 11.8639 10.1122 11.3919 8.43219 11.3919H4.88019V21.8079H8.43219ZM27.5403 22.1919C28.2123 22.1919 28.8043 22.0959 29.3163 21.9039C29.8443 21.6959 30.3323 21.3759 30.7803 20.9439L32.7723 23.1039C31.5563 24.4959 29.7803 25.1919 27.4443 25.1919C25.9883 25.1919 24.7003 24.9119 23.5803 24.3519C22.4603 23.7759 21.5963 22.9839 20.9883 21.9759C20.3803 20.9679 20.0763 19.8239 20.0763 18.5439C20.0763 17.2799 20.3723 16.1439 20.9643 15.1359C21.5723 14.1119 22.3963 13.3199 23.4363 12.7599C24.4923 12.1839 25.6763 11.8959 26.9883 11.8959C28.2203 11.8959 29.3403 12.1599 30.3483 12.6879C31.3563 13.1999 32.1563 13.9519 32.7483 14.9439C33.3563 15.9199 33.6603 17.0799 33.6603 18.4239L24.1083 20.2719C24.3803 20.9119 24.8043 21.3919 25.3803 21.7119C25.9723 22.0319 26.6923 22.1919 27.5403 22.1919ZM26.9883 14.7279C26.0443 14.7279 25.2763 15.0319 24.6843 15.6399C24.0923 16.2479 23.7803 17.0879 23.7483 18.1599L30.0363 16.9359C29.8603 16.2639 29.5003 15.7279 28.9563 15.3279C28.4123 14.9279 27.7563 14.7279 26.9883 14.7279ZM49.2386 12.0879L43.7906 24.9999H39.9266L34.5026 12.0879H38.3666L41.9426 20.8719L45.6386 12.0879H49.2386ZM56.9366 25.2879C55.6086 25.2879 54.3206 25.1119 53.0726 24.7599C51.8406 24.3919 50.8486 23.9199 50.0966 23.3439L51.4166 20.4159C52.1366 20.9439 52.9926 21.3679 53.9846 21.6879C54.9766 22.0079 55.9686 22.1679 56.9606 22.1679C58.0646 22.1679 58.8806 22.0079 59.4086 21.6879C59.9366 21.3519 60.2006 20.9119 60.2006 20.3679C60.2006 19.9679 60.0406 19.6399 59.7206 19.3839C59.4166 19.1119 59.0166 18.8959 58.5206 18.7359C58.0406 18.5759 57.3846 18.3999 56.5526 18.2079C55.2726 17.9039 54.2246 17.5999 53.4086 17.2959C52.5926 16.9919 51.8886 16.5039 51.2966 15.8319C50.7206 15.1599 50.4326 14.2639 50.4326 13.1439C50.4326 12.1679 50.6966 11.2879 51.2246 10.5039C51.7526 9.7039 52.5446 9.0719 53.6006 8.6079C54.6726 8.1439 55.9766 7.9119 57.5126 7.9119C58.5846 7.9119 59.6326 8.0399 60.6566 8.2959C61.6806 8.5519 62.5766 8.9199 63.3446 9.3999L62.1446 12.3519C60.5926 11.4719 59.0406 11.0319 57.4886 11.0319C56.4006 11.0319 55.5926 11.2079 55.0646 11.5599C54.5526 11.9119 54.2966 12.3759 54.2966 12.9519C54.2966 13.5279 54.5926 13.9599 55.1846 14.2479C55.7926 14.5199 56.7126 14.7919 57.9446 15.0639C59.2246 15.3679 60.2726 15.6719 61.0886 15.9759C61.9046 16.2799 62.6006 16.7599 63.1766 17.4159C63.7686 18.0719 64.0646 18.9599 64.0646 20.0799C64.0646 21.0399 63.7926 21.9199 63.2486 22.7199C62.7206 23.5039 61.9206 24.1279 60.8486 24.5919C59.7766 25.0559 58.4726 25.2879 56.9366 25.2879ZM74.7853 11.8959C76.3853 11.8959 77.6733 12.3759 78.6493 13.3359C79.6413 14.2959 80.1373 15.7199 80.1373 17.6079V24.9999H76.3933V18.1839C76.3933 17.1599 76.1693 16.3999 75.7213 15.9039C75.2733 15.3919 74.6253 15.1359 73.7773 15.1359C72.8333 15.1359 72.0813 15.4319 71.5213 16.0239C70.9613 16.5999 70.6813 17.4639 70.6813 18.6159V24.9999H66.9373V7.19189H70.6813V13.4319C71.1773 12.9359 71.7773 12.5599 72.4813 12.3039C73.1853 12.0319 73.9533 11.8959 74.7853 11.8959ZM90.2956 25.1919C88.9356 25.1919 87.7116 24.9119 86.6236 24.3519C85.5516 23.7759 84.7116 22.9839 84.1036 21.9759C83.4956 20.9679 83.1916 19.8239 83.1916 18.5439C83.1916 17.2639 83.4956 16.1199 84.1036 15.1119C84.7116 14.1039 85.5516 13.3199 86.6236 12.7599C87.7116 12.1839 88.9356 11.8959 90.2956 11.8959C91.6556 11.8959 92.8716 12.1839 93.9436 12.7599C95.0156 13.3199 95.8556 14.1039 96.4636 15.1119C97.0716 16.1199 97.3756 17.2639 97.3756 18.5439C97.3756 19.8239 97.0716 20.9679 96.4636 21.9759C95.8556 22.9839 95.0156 23.7759 93.9436 24.3519C92.8716 24.9119 91.6556 25.1919 90.2956 25.1919ZM90.2956 22.1199C91.2556 22.1199 92.0396 21.7999 92.6476 21.1599C93.2716 20.5039 93.5836 19.6319 93.5836 18.5439C93.5836 17.4559 93.2716 16.5919 92.6476 15.9519C92.0396 15.2959 91.2556 14.9679 90.2956 14.9679C89.3356 14.9679 88.5436 15.2959 87.9196 15.9519C87.2956 16.5919 86.9836 17.4559 86.9836 18.5439C86.9836 19.6319 87.2956 20.5039 87.9196 21.1599C88.5436 21.7999 89.3356 22.1199 90.2956 22.1199ZM107.99 11.8959C109.19 11.8959 110.278 12.1759 111.254 12.7359C112.246 13.2799 113.022 14.0559 113.582 15.0639C114.142 16.0559 114.422 17.2159 114.422 18.5439C114.422 19.8719 114.142 21.0399 113.582 22.0479C113.022 23.0399 112.246 23.8159 111.254 24.3759C110.278 24.9199 109.19 25.1919 107.99 25.1919C106.342 25.1919 105.046 24.6719 104.102 23.6319V29.6559H100.358V12.0879H103.934V13.5759C104.862 12.4559 106.214 11.8959 107.99 11.8959ZM107.342 22.1199C108.302 22.1199 109.086 21.7999 109.694 21.1599C110.318 20.5039 110.63 19.6319 110.63 18.5439C110.63 17.4559 110.318 16.5919 109.694 15.9519C109.086 15.2959 108.302 14.9679 107.342 14.9679C106.382 14.9679 105.59 15.2959 104.966 15.9519C104.358 16.5919 104.054 17.4559 104.054 18.5439C104.054 19.6319 104.358 20.5039 104.966 21.1599C105.59 21.7999 106.382 22.1199 107.342 22.1199Z" fill="white"/>
</svg>
