<svg xmlns="http://www.w3.org/2000/svg" viewBox="0 0 1440 320">
  <path fill="#4299E1" fill-opacity="1" d="M0,96L30,112C60,128,120,160,180,170.7C240,181,300,171,360,181.3C420,192,480,224,540,213.3C600,203,660,149,720,160C780,171,840,245,900,261.3C960,277,1020,235,1080,202.7C1140,171,1200,149,1260,154.7C1320,160,1380,192,1410,208L1440,224L1440,320L1410,320C1380,320,1320,320,1260,320C1200,320,1140,320,1080,320C1020,320,960,320,900,320C840,320,780,320,720,320C660,320,600,320,540,320C480,320,420,320,360,320C300,320,240,320,180,320C120,320,60,320,30,320L0,320Z"></path>
</svg>
